<svg width="24" height="24" viewBox="0 0 24 24" fill="#545454" xmlns="http://www.w3.org/2000/svg">
<g clip-path="url(#clip0_55_2)">
<path d="M19 2C19.5304 2 20.0391 2.21071 20.4142 2.58579C20.7893 2.96086 21 3.46957 21 4V16C21 16.5304 20.7893 17.0391 20.4142 17.4142C20.0391 17.7893 19.5304 18 19 18H17V20C17 20.5304 16.7893 21.0391 16.4142 21.4142C16.0391 21.7893 15.5304 22 15 22H5C4.46957 22 3.96086 21.7893 3.58579 21.4142C3.21071 21.0391 3 20.5304 3 20V8C3 7.46957 3.21071 6.96086 3.58579 6.58579C3.96086 6.21071 4.46957 6 5 6H7V4C7 3.46957 7.21071 2.96086 7.58579 2.58579C7.96086 2.21071 8.46957 2 9 2H19ZM15 8H5V20H15V8ZM10 15C10.2652 15 10.5196 15.1054 10.7071 15.2929C10.8946 15.4804 11 15.7348 11 16C11 16.2652 10.8946 16.5196 10.7071 16.7071C10.5196 16.8946 10.2652 17 10 17H8C7.73478 17 7.48043 16.8946 7.29289 16.7071C7.10536 16.5196 7 16.2652 7 16C7 15.7348 7.10536 15.4804 7.29289 15.2929C7.48043 15.1054 7.73478 15 8 15H10ZM19 4H9V6H15C15.5304 6 16.0391 6.21071 16.4142 6.58579C16.7893 6.96086 17 7.46957 17 8V16H19V4ZM12 11C12.2549 11.0003 12.5 11.0979 12.6854 11.2728C12.8707 11.4478 12.9822 11.687 12.9972 11.9414C13.0121 12.1958 12.9293 12.4464 12.7657 12.6418C12.6021 12.8373 12.3701 12.9629 12.117 12.993L12 13H8C7.74512 12.9997 7.49997 12.9021 7.31463 12.7272C7.1293 12.5522 7.01777 12.313 7.00283 12.0586C6.98789 11.8042 7.07067 11.5536 7.23426 11.3582C7.39786 11.1627 7.6299 11.0371 7.883 11.007L8 11H12Z" fill={fill}/>
</g>
<defs>
<clipPath id="clip0_55_2">
<rect width="24" height="24" fill="white"/>
</clipPath>
</defs>
</svg>
