<svg width="24" height="24" viewBox="0 0 24 24" fill="none" xmlns="http://www.w3.org/2000/svg">
<path d="M12 1.60001C8.67685 1.60001 4.80005 3.66081 4.80005 8.90881C4.80005 12.4688 10.3392 20.3392 12 22.4C13.4768 20.3392 19.2 12.656 19.2 8.90881C19.2 3.66081 15.3232 1.60001 12 1.60001Z" fill="#9747FF"/>
<circle cx="12" cy="9" r="6" fill="#F8E1FE"/>
<path d="M8.625 5V5.3125C8.625 5.60625 8.79625 5.75375 9.125 6L9.15 6.01875C9.44625 6.24063 9.875 6.56125 9.875 7.1875V7.5H9.25V7.1875C9.25 6.89375 9.07875 6.74625 8.75 6.5L8.725 6.48125C8.42875 6.25937 8 5.93875 8 5.3125V5H8.625ZM10.5 5V5.3125C10.5 5.60625 10.6713 5.75375 11 6L11.025 6.01875C11.3213 6.24063 11.75 6.56125 11.75 7.1875V7.5H11.125V7.1875C11.125 6.89375 10.9537 6.74625 10.625 6.5L10.6 6.48125C10.3037 6.25937 9.875 5.93875 9.875 5.3125V5H10.5ZM12.375 5V5.3125C12.375 5.60625 12.5463 5.75375 12.875 6L12.9 6.01875C13.1963 6.24063 13.625 6.56125 13.625 7.1875V7.5H13V7.1875C13 6.89375 12.8287 6.74625 12.5 6.5L12.475 6.48125C12.1787 6.25937 11.75 5.93875 11.75 5.3125V5H12.375Z" fill="#70046C"/>
<path fill-rule="evenodd" clip-rule="evenodd" d="M8 8.75L8.625 8.125H15.1875C15.6019 8.125 15.9993 8.28962 16.2924 8.58265C16.5854 8.87567 16.75 9.2731 16.75 9.6875C16.75 10.1019 16.5854 10.4993 16.2924 10.7924C15.9993 11.0854 15.6019 11.25 15.1875 11.25H14.7962C14.6575 11.7866 14.3444 12.262 13.9061 12.6014C13.4679 12.9407 12.9293 13.1249 12.375 13.125H10.5C9.83696 13.125 9.20107 12.8616 8.73223 12.3928C8.26339 11.9239 8 11.288 8 10.625V8.75ZM14.25 10.625V8.75H8.625V10.625C8.625 11.1223 8.82254 11.5992 9.17417 11.9508C9.52581 12.3025 10.0027 12.5 10.5 12.5H12.375C12.8723 12.5 13.3492 12.3025 13.7008 11.9508C14.0525 11.5992 14.25 11.1223 14.25 10.625ZM14.875 8.75V10.625H15.1875C15.4361 10.625 15.6746 10.5262 15.8504 10.3504C16.0262 10.1746 16.125 9.93614 16.125 9.6875C16.125 9.43886 16.0262 9.2004 15.8504 9.02459C15.6746 8.84877 15.4361 8.75 15.1875 8.75H14.875Z" fill="#70046C"/>
</svg>
